<svg width="280" height="280" viewBox="0 0 280 280" fill="none" xmlns="http://www.w3.org/2000/svg">
<g clip-path="url(#clip0_2602_7)">
<path d="M40 136.104C40.1297 103.887 66.3769 77.4854 98.6205 77.4854C130.943 77.4854 157.239 103.781 157.239 136.104V144.379C157.239 157.689 168.068 168.518 181.378 168.518C194.689 168.518 205.516 157.689 205.516 144.379C205.516 140.571 208.605 137.483 212.413 137.483H233.103C236.914 137.483 240 140.571 240 144.379C240 176.702 213.704 203 181.38 203C149.057 203 122.759 176.702 122.759 144.379V136.104C122.759 122.793 111.93 111.967 98.6224 111.967C85.3129 111.967 74.4838 122.793 74.4838 136.104C74.4838 139.912 71.3955 143.001 67.587 143.001H46.8968C43.0882 142.999 40 139.912 40 136.104Z" fill="white"/>
</g>
<g clip-path="url(#clip1_2602_7)">
<path d="M40 143.896C40.1297 176.113 66.3769 202.515 98.6205 202.515C130.943 202.515 157.239 176.219 157.239 143.896V135.621C157.239 122.311 168.068 111.482 181.378 111.482C194.689 111.482 205.516 122.311 205.516 135.621C205.516 139.429 208.605 142.517 212.413 142.517H233.103C236.914 142.517 240 139.429 240 135.621C240 103.298 213.704 77.0002 181.38 77.0002C149.057 77.0002 122.759 103.298 122.759 135.621V143.896C122.759 157.207 111.93 168.033 98.6224 168.033C85.3129 168.033 74.4838 157.207 74.4838 143.896C74.4838 140.088 71.3955 136.999 67.587 136.999H46.8968C43.0882 137.001 40 140.088 40 143.896Z" fill="white"/>
</g>
<defs>
<clipPath id="clip0_2602_7">
<rect width="200" height="200" fill="white" transform="matrix(1 0 0 -1 40 240)"/>
</clipPath>
<clipPath id="clip1_2602_7">
<rect width="200" height="200" fill="white" transform="translate(40 40)"/>
</clipPath>
</defs>
</svg>
